<svg xmlns="http://www.w3.org/2000/svg" width="24" height="28" viewBox="0 0 24 28">
    <path fill="#442D26" fill-rule="evenodd" d="M15.322 4.57c.396 0 .718.323.718.719a.71.71 0 0 1-.718.708.71.71 0 0 1-.717-.708c0-.396.322-.718.717-.718zm-7.176 0c.396 0 .718.323.718.719a.71.71 0 0 1-.718.708.711.711 0 0 1-.718-.708.72.72 0 0 1 .718-.718zM6.851.209s-.059-.12.058-.187c.117-.067.191.048.191.048l1.315 2.273a8.136 8.136 0 0 1 3.32-.7c1.19 0 2.316.253 3.318.7L16.368.069s.08-.115.195-.048c.116.068.055.187.055.187L15.322 2.46C17.68 3.618 19.28 5.883 19.28 8.48H4.19c0-2.597 1.598-4.863 3.956-6.02L6.851.209zM4.13 9.359h15.209v11.447c0 .568-.686 1.312-1.254 1.312h-1.786v3.902c0 .994-.733 1.794-1.634 1.794-.901 0-1.624-.8-1.624-1.794v-3.902h-2.612v3.902c0 .994-.724 1.794-1.624 1.794-.901 0-1.625-.8-1.625-1.794v-3.902H5.383c-.567 0-1.254-.744-1.254-1.312V9.359zm-2.503-.24c.898 0 1.626.804 1.626 1.794v6.792c0 .99-.728 1.794-1.626 1.794-.898 0-1.626-.803-1.626-1.794v-6.792c0-.99.728-1.794 1.626-1.794zm20.217 0c.898 0 1.626.804 1.626 1.794v6.792c0 .99-.728 1.794-1.626 1.794-.898 0-1.626-.803-1.626-1.794v-6.792c0-.99.728-1.794 1.626-1.794z"/>
</svg>
