<svg xmlns="http://www.w3.org/2000/svg" width="24" height="29" viewBox="0 0 24 29">
    <path fill="#442D26" fill-rule="nonzero" d="M20.045 15.409c-.037-3.673 3.044-5.434 3.182-5.522-1.732-2.492-4.429-2.834-5.39-2.873-2.295-.229-4.478 1.33-5.643 1.33-1.162 0-2.96-1.297-4.863-1.263-2.502.037-4.809 1.432-6.097 3.636-2.6 4.438-.666 11.012 1.868 14.611 1.238 1.762 2.714 3.74 4.652 3.67 1.866-.073 2.572-1.188 4.829-1.188 2.256 0 2.89 1.188 4.865 1.152 2.009-.037 3.281-1.796 4.51-3.563 1.422-2.044 2.007-4.022 2.042-4.124-.045-.02-3.916-1.48-3.955-5.866zM16.334 4.63C17.362 3.403 18.057 1.7 17.867 0c-1.482.06-3.278.971-4.34 2.196-.955 1.087-1.79 2.822-1.566 4.487 1.654.127 3.343-.827 4.373-2.052z"/>
</svg>
